<svg width="45" height="56" viewBox="0 0 45 56" fill="none" xmlns="http://www.w3.org/2000/svg">
<g clip-path="url(#clip0_5_6)">
<path d="M0 1C0 0.447715 0.447715 0 1 0H34.8C40.3229 0 44.8 4.47715 44.8 10V55C44.8 55.5523 44.3523 56 43.8 56H9.99999C4.47714 56 0 51.5228 0 46V1Z" fill="#E2E742"/>
<path d="M20.232 4.048C20.424 4.048 20.5947 4.112 20.744 4.24C20.872 4.38933 20.936 4.56 20.936 4.752V25.296C20.936 25.488 20.872 25.648 20.744 25.776C20.5947 25.9253 20.424 26 20.232 26H17.256C17.064 26 16.904 25.9253 16.776 25.776C16.6267 25.648 16.552 25.488 16.552 25.296V11.632L13.928 15.792C13.8213 15.9627 13.672 16.112 13.48 16.24C13.2667 16.3467 13.064 16.4 12.872 16.4H11.464C11.272 16.4 11.0693 16.3467 10.856 16.24C10.664 16.112 10.5147 15.9627 10.408 15.792L7.75201 11.6V25.296C7.75201 25.488 7.68801 25.648 7.56001 25.776C7.41068 25.9253 7.24001 26 7.04801 26H4.07201C3.88001 26 3.72001 25.9253 3.59201 25.776C3.44268 25.648 3.36801 25.488 3.36801 25.296V4.752C3.36801 4.56 3.44268 4.38933 3.59201 4.24C3.72001 4.112 3.88001 4.048 4.07201 4.048H7.04801L7.27201 4.08C7.37868 4.10133 7.48534 4.15467 7.59201 4.24C7.80534 4.34667 7.96534 4.48533 8.07201 4.656L12.168 11.728L16.264 4.656C16.3707 4.48533 16.52 4.34667 16.712 4.24L16.968 4.112C17.0533 4.06933 17.1493 4.048 17.256 4.048H20.232ZM35.0245 4.08C35.8138 4.08 36.5498 4.22933 37.2325 4.528C37.9152 4.82667 38.5125 5.232 39.0245 5.744C39.5365 6.256 39.9418 6.85333 40.2405 7.536C40.5392 8.21867 40.6885 8.944 40.6885 9.712V20.368C40.6885 21.136 40.5392 21.8613 40.2405 22.544C39.9418 23.2267 39.5365 23.824 39.0245 24.336C38.5125 24.848 37.9152 25.2533 37.2325 25.552C36.5498 25.8507 35.8138 26 35.0245 26H28.7845C27.9952 26 27.2592 25.8507 26.5765 25.552C25.8938 25.2533 25.2965 24.848 24.7845 24.336C24.2725 23.824 23.8672 23.2267 23.5685 22.544C23.2698 21.8613 23.1205 21.136 23.1205 20.368V9.712C23.1205 8.944 23.2698 8.21867 23.5685 7.536C23.8672 6.85333 24.2725 6.256 24.7845 5.744C25.2965 5.232 25.8938 4.82667 26.5765 4.528C27.2592 4.22933 27.9952 4.08 28.7845 4.08H35.0245ZM36.3045 9.712C36.3045 9.34933 36.1765 9.05067 35.9205 8.816C35.6858 8.58133 35.3872 8.464 35.0245 8.464H28.7845C28.4218 8.464 28.1125 8.58133 27.8565 8.816C27.6218 9.05067 27.5045 9.34933 27.5045 9.712V20.368C27.5045 20.7307 27.6218 21.0293 27.8565 21.264C28.1125 21.4987 28.4218 21.616 28.7845 21.616H35.0245C35.3872 21.616 35.6858 21.4987 35.9205 21.264C36.1765 21.0293 36.3045 20.7307 36.3045 20.368V9.712ZM9.16001 50C8.39201 50 7.66668 49.8507 6.98401 49.552C6.30134 49.2533 5.70401 48.848 5.19201 48.336C4.68001 47.824 4.27468 47.2267 3.97601 46.544C3.67734 45.8613 3.52801 45.1253 3.52801 44.336V41.904C3.52801 41.712 3.59201 41.552 3.72001 41.424C3.84801 41.296 4.00801 41.232 4.20001 41.232H7.20801C7.40001 41.232 7.56001 41.296 7.68801 41.424C7.83734 41.552 7.91201 41.712 7.91201 41.904V44.336C7.91201 44.6987 8.02934 45.008 8.26401 45.264C8.49868 45.4987 8.79734 45.616 9.16001 45.616H14.952C15.2933 45.616 15.5813 45.4987 15.816 45.264C16.072 45.008 16.2 44.6987 16.2 44.336V32.432H4.20001C4.00801 32.432 3.84801 32.368 3.72001 32.24C3.59201 32.112 3.52801 31.952 3.52801 31.76V28.752C3.52801 28.56 3.59201 28.4 3.72001 28.272C3.84801 28.1227 4.00801 28.048 4.20001 28.048H19.912C20.104 28.048 20.264 28.1227 20.392 28.272C20.52 28.4 20.584 28.56 20.584 28.752V44.336C20.584 45.1253 20.4347 45.8613 20.136 46.544C19.8373 47.2267 19.432 47.824 18.92 48.336C18.408 48.848 17.8107 49.2533 17.128 49.552C16.4453 49.8507 15.72 50 14.952 50H9.16001ZM40.3053 31.76C40.3053 31.952 40.2413 32.112 40.1133 32.24C39.9853 32.368 39.8253 32.432 39.6333 32.432H27.7933V36.848H38.5133C38.7053 36.848 38.8653 36.912 38.9933 37.04C39.1426 37.168 39.2173 37.328 39.2173 37.52V40.528C39.2173 40.72 39.1426 40.8907 38.9933 41.04C38.8653 41.168 38.7053 41.232 38.5133 41.232H27.7933V45.616H39.6333C39.8253 45.616 39.9853 45.6907 40.1133 45.84C40.2413 45.968 40.3053 46.128 40.3053 46.32V49.296C40.3053 49.488 40.2413 49.6587 40.1133 49.808C39.9853 49.936 39.8253 50 39.6333 50H24.0813C23.8893 50 23.7293 49.936 23.6013 49.808C23.4733 49.6587 23.4093 49.488 23.4093 49.296V28.752C23.4093 28.56 23.4733 28.4 23.6013 28.272C23.7293 28.1227 23.8893 28.048 24.0813 28.048H39.6333C39.8253 28.048 39.9853 28.1227 40.1133 28.272C40.2413 28.4 40.3053 28.56 40.3053 28.752V31.76Z" fill="#212121"/>
</g>
<defs>
<clipPath id="clip0_5_6">
<rect width="45" height="56" fill="white"/>
</clipPath>
</defs>
</svg>
